<svg xmlns="http://www.w3.org/2000/svg" viewBox="0 0 98.43 118.4">
  <title>Stack</title>
  <g>
    <g>
      <g>
        <path d="M54.79,76.45h1.58L46,62l-1,.93Z" style="fill: #2a1659"/>
        <path d="M21.85,28.46H20.09l18.37,25.4c.27-.39.55-.77.83-1.16Z" style="fill: #2a1659"/>
        <path d="M25.32,28.46H23.57l16.61,23L41,50.32Z" style="fill: #2a1659"/>
        <path d="M58.23,76.45h1.59L48,60l-1,.91Z" style="fill: #2a1659"/>
        <path d="M62.42,76.45h9.76L55.7,53.51c-2.11,1.65-4.16,3.35-6.13,5.11Z" style="fill: #2a1659"/>
        <path d="M37.71,28.46H27.84L42.35,48.59c1.68-2.16,3.45-4.26,5.28-6.31Z" style="fill: #2a1659"/>
      </g>
      <path d="M95.13,33.36a47.16,47.16,0,0,1,3.3,16.91A48.89,48.89,0,0,1,86.49,82.59,48.41,48.41,0,0,1,37.76,97.86a48.36,48.36,0,0,1-16.31-7.51A50.18,50.18,0,0,1,.78,43.09a50.13,50.13,0,0,1,16.49-31,48.71,48.71,0,0,1,15.2-9.13A47.38,47.38,0,0,1,49.84,0,46.31,46.31,0,0,1,81.36,12.87,47.3,47.3,0,0,0,49.86,2.46,45.08,45.08,0,0,0,33.67,6a46.59,46.59,0,0,0-13.78,9,47.76,47.76,0,0,0-9.76,13.11,46.27,46.27,0,0,0,2.93,46.63,45.72,45.72,0,0,0,11.22,11.7A44.9,44.9,0,0,0,39,93.29a45.78,45.78,0,0,0,31.92-3.08,47.32,47.32,0,0,0,22.3-23.67,49.09,49.09,0,0,0,3.88-16.31A49.59,49.59,0,0,0,95.13,33.36Z" style="fill: #2a1659"/>
      <g>
        <path d="M30.3,75.44c.75-1.34,1.45-2.57,2.11-3.72C31.68,73,31,74.19,30.3,75.44Z" style="fill: none"/>
        <path d="M95.09,12.49l0-.05h-.13S95,12.44,95.09,12.49Z" style="fill: #9eb3e5"/>
        <path d="M36.1,66.39a97.62,97.62,0,0,0-5.8,9c.67-1.25,1.38-2.49,2.11-3.72h0c1.56-2.64,3.26-5.23,5.07-7.78h0c15.24-21.36,37.74-38.09,59.39-46l-1.78-5.45c-.07-.05-.14-.08-.17-.05-30.49,11-58.66,39.46-68.5,71.15.48-1.16,1-2.31,1.53-3.46C42.06,57,69.19,38.07,94.45,29.81l-.75-5.18C71.48,31.61,50.08,47,36.1,66.39Z" style="fill: #6536ff"/>
      </g>
    </g>
    <g>
      <path d="M10.82,107.44,6.29,118.21H4.55L0,107.44H1.61l3.8,9.3,3.8-9.3Z" style="fill: #2a1659"/>
      <path d="M21.25,107.44v1.2h-6v2.3h-1.4v-3.5Zm-.11,5.87H13.87v-1.2h7.27ZM15.27,117h6v1.2H13.87v-3.74h1.4Z" style="fill: #2a1659"/>
      <path d="M34.87,107.39l-8.79,10.82H24.3l8.79-10.82Zm-7.07,4.29-3.5-4.29h1.81l2.59,3.2Zm7.08,6.53H33.11L30.49,115l.89-1.1Z" style="fill: #2a1659"/>
      <path d="M48.5,107.39l-8.8,10.82H37.93l8.79-10.82Zm-7.07,4.29-3.5-4.29h1.81l2.59,3.2Zm7.08,6.53H46.74L44.12,115l.89-1.1Z" style="fill: #2a1659"/>
      <path d="M61,112.07v6.14H59.55v-4.94h-8v-5.83H53v4.63Zm-9.4,6.14v-3.77H53v3.77Zm8-7.3v-3.47H61v3.47Z" style="fill: #6536ff"/>
      <path d="M75.21,112.82a5.61,5.61,0,1,1-5.61-5.57A5.38,5.38,0,0,1,75.21,112.82Zm-1.45,0a4.16,4.16,0,1,0-4.16,4.37A4.08,4.08,0,0,0,73.76,112.82Z" style="fill: #6536ff"/>
      <path d="M86.75,115.23c0,1.56-1.12,3.17-4.16,3.17a5.74,5.74,0,0,1-4.33-1.71l.84-1a4.75,4.75,0,0,0,3.54,1.55c2,0,2.65-1,2.65-1.87,0-2.78-6.68-1.22-6.68-5.06,0-1.77,1.66-3,3.89-3a5.42,5.42,0,0,1,4,1.51l-.84,1a4.39,4.39,0,0,0-3.27-1.29c-1.33,0-2.31.7-2.31,1.71C80.07,112.6,86.75,111.21,86.75,115.23Z" style="fill: #6536ff"/>
      <path d="M89.78,108.64v-1.2h8.55v1.2Zm3.56,9.57v-8.4h1.41v8.4Z" style="fill: #6536ff"/>
    </g>
  </g>
</svg>